<mxfile host="Electron" modified="2023-05-14T16:08:21.829Z" agent="Mozilla/5.0 (Windows NT 10.0; Win64; x64) AppleWebKit/537.36 (KHTML, like Gecko) draw.io/21.2.8 Chrome/112.0.5615.165 Electron/24.2.0 Safari/537.36" etag="J0a3NDr6L3aOKBPe1kdx" version="21.2.8" type="device">
  <diagram name="Page-1" id="jOTbS239regMLlkqWPYL">
    <mxGraphModel dx="1491" dy="1891" grid="0" gridSize="10" guides="1" tooltips="1" connect="1" arrows="1" fold="1" page="0" pageScale="1" pageWidth="850" pageHeight="1100" math="0" shadow="0">
      <root>
        <mxCell id="0" />
        <mxCell id="1" parent="0" />
        <mxCell id="r6yLNoG1JKIrol4z2VNO-1" value="" style="rounded=0;whiteSpace=wrap;html=1;fontSize=16;horizontal=0;" parent="1" vertex="1">
          <mxGeometry x="-281" y="-1048" width="819" height="623" as="geometry" />
        </mxCell>
        <mxCell id="r6yLNoG1JKIrol4z2VNO-2" value="" style="rounded=1;whiteSpace=wrap;html=1;fontSize=16;fillColor=#dae8fc;strokeColor=#6c8ebf;" parent="1" vertex="1">
          <mxGeometry x="-109" y="-661" width="607" height="100" as="geometry" />
        </mxCell>
        <mxCell id="r6yLNoG1JKIrol4z2VNO-3" value="" style="rounded=1;whiteSpace=wrap;html=1;fontSize=16;fillColor=#ffe6cc;strokeColor=#d79b00;" parent="1" vertex="1">
          <mxGeometry x="-105" y="-807" width="606" height="132" as="geometry" />
        </mxCell>
        <mxCell id="r6yLNoG1JKIrol4z2VNO-4" value="Application Layer" style="rounded=1;whiteSpace=wrap;html=1;fontSize=16;fillColor=#d5e8d4;strokeColor=#82b366;" parent="1" vertex="1">
          <mxGeometry x="-105" y="-919" width="607" height="98" as="geometry" />
        </mxCell>
        <mxCell id="r6yLNoG1JKIrol4z2VNO-5" value="" style="rounded=1;whiteSpace=wrap;html=1;fontSize=16;fillColor=#f5f5f5;fontColor=#333333;strokeColor=#666666;" parent="1" vertex="1">
          <mxGeometry x="-217" y="-921" width="95" height="433" as="geometry" />
        </mxCell>
        <mxCell id="r6yLNoG1JKIrol4z2VNO-6" value="&lt;font style=&quot;font-size: 18px;&quot;&gt;System Modules&lt;/font&gt;" style="text;html=1;strokeColor=none;fillColor=none;align=center;verticalAlign=middle;whiteSpace=wrap;rounded=0;fontSize=16;" parent="1" vertex="1">
          <mxGeometry x="3.5" y="-997" width="250" height="30" as="geometry" />
        </mxCell>
        <mxCell id="r6yLNoG1JKIrol4z2VNO-7" value="Microcontroller" style="rounded=0;whiteSpace=wrap;html=1;fontSize=16;fillColor=#fad9d5;strokeColor=#ae4132;" parent="1" vertex="1">
          <mxGeometry x="-111" y="-548" width="608" height="60" as="geometry" />
        </mxCell>
        <mxCell id="r6yLNoG1JKIrol4z2VNO-8" value="USI" style="rounded=1;whiteSpace=wrap;html=1;fontSize=16;fillColor=#ff9e42;fontColor=#000000;strokeColor=#C73500;" parent="1" vertex="1">
          <mxGeometry x="219.5" y="-792" width="100" height="35" as="geometry" />
        </mxCell>
        <mxCell id="r6yLNoG1JKIrol4z2VNO-9" value="HAL" style="rounded=1;whiteSpace=wrap;html=1;fontSize=16;fillColor=#ff9e42;fontColor=#000000;strokeColor=#C73500;" parent="1" vertex="1">
          <mxGeometry x="474" y="-766" width="120" height="50" as="geometry" />
        </mxCell>
        <mxCell id="r6yLNoG1JKIrol4z2VNO-10" value="BTN" style="rounded=1;whiteSpace=wrap;html=1;fontSize=16;fillColor=#ff9e42;fontColor=#000000;strokeColor=#C73500;" parent="1" vertex="1">
          <mxGeometry x="345" y="-742.5" width="100" height="35" as="geometry" />
        </mxCell>
        <mxCell id="r6yLNoG1JKIrol4z2VNO-16" style="edgeStyle=none;curved=1;rounded=0;orthogonalLoop=1;jettySize=auto;html=1;exitX=0.5;exitY=1;exitDx=0;exitDy=0;fontSize=12;startSize=8;endSize=8;" parent="1" source="r6yLNoG1JKIrol4z2VNO-15" target="r6yLNoG1JKIrol4z2VNO-15" edge="1">
          <mxGeometry relative="1" as="geometry" />
        </mxCell>
        <mxCell id="VjE--omdAlmAHaHHL6hZ-25" style="edgeStyle=orthogonalEdgeStyle;rounded=1;orthogonalLoop=1;jettySize=auto;html=1;entryX=0.25;entryY=0;entryDx=0;entryDy=0;fontSize=12;startSize=8;endSize=8;exitX=0.5;exitY=1;exitDx=0;exitDy=0;" edge="1" parent="1" source="VjE--omdAlmAHaHHL6hZ-1" target="r6yLNoG1JKIrol4z2VNO-15">
          <mxGeometry relative="1" as="geometry" />
        </mxCell>
        <mxCell id="VjE--omdAlmAHaHHL6hZ-1" value="SWICU" style="rounded=1;whiteSpace=wrap;html=1;fontSize=16;fillColor=#ff9e42;fontColor=#000000;strokeColor=#C73500;" vertex="1" parent="1">
          <mxGeometry x="219.5" y="-742.5" width="100" height="35" as="geometry" />
        </mxCell>
        <mxCell id="r6yLNoG1JKIrol4z2VNO-15" value="EXI" style="rounded=1;whiteSpace=wrap;html=1;fontSize=16;fillColor=#1ba1e2;fontColor=#ffffff;strokeColor=#006EAF;" parent="1" vertex="1">
          <mxGeometry x="301" y="-626" width="130" height="35" as="geometry" />
        </mxCell>
        <mxCell id="r6yLNoG1JKIrol4z2VNO-12" value="MCAL" style="rounded=1;whiteSpace=wrap;html=1;fontSize=16;fillColor=#1ba1e2;fontColor=#ffffff;strokeColor=#006EAF;" parent="1" vertex="1">
          <mxGeometry x="474" y="-636" width="120" height="50" as="geometry" />
        </mxCell>
        <mxCell id="VjE--omdAlmAHaHHL6hZ-8" style="edgeStyle=orthogonalEdgeStyle;rounded=1;orthogonalLoop=1;jettySize=auto;html=1;entryX=0.5;entryY=0;entryDx=0;entryDy=0;fontSize=12;startSize=8;endSize=8;" edge="1" parent="1" source="r6yLNoG1JKIrol4z2VNO-10" target="r6yLNoG1JKIrol4z2VNO-15">
          <mxGeometry relative="1" as="geometry" />
        </mxCell>
        <mxCell id="VjE--omdAlmAHaHHL6hZ-26" style="edgeStyle=orthogonalEdgeStyle;rounded=1;orthogonalLoop=1;jettySize=auto;html=1;entryX=0.25;entryY=0;entryDx=0;entryDy=0;fontSize=12;startSize=8;endSize=8;exitX=0.5;exitY=1;exitDx=0;exitDy=0;" edge="1" parent="1" source="VjE--omdAlmAHaHHL6hZ-10" target="VjE--omdAlmAHaHHL6hZ-13">
          <mxGeometry relative="1" as="geometry" />
        </mxCell>
        <mxCell id="VjE--omdAlmAHaHHL6hZ-10" value="LCD" style="rounded=1;whiteSpace=wrap;html=1;fontSize=16;fillColor=#ff9e42;fontColor=#000000;strokeColor=#C73500;" vertex="1" parent="1">
          <mxGeometry x="-73" y="-771" width="60" height="60" as="geometry" />
        </mxCell>
        <mxCell id="VjE--omdAlmAHaHHL6hZ-29" style="edgeStyle=none;curved=1;rounded=0;orthogonalLoop=1;jettySize=auto;html=1;entryX=0.384;entryY=-0.01;entryDx=0;entryDy=0;entryPerimeter=0;fontSize=12;startSize=8;endSize=8;" edge="1" parent="1" source="VjE--omdAlmAHaHHL6hZ-11" target="VjE--omdAlmAHaHHL6hZ-13">
          <mxGeometry relative="1" as="geometry" />
        </mxCell>
        <mxCell id="VjE--omdAlmAHaHHL6hZ-11" value="KPD" style="rounded=1;whiteSpace=wrap;html=1;fontSize=16;fillColor=#ff9e42;fontColor=#000000;strokeColor=#C73500;" vertex="1" parent="1">
          <mxGeometry x="20" y="-771" width="60" height="60" as="geometry" />
        </mxCell>
        <mxCell id="VjE--omdAlmAHaHHL6hZ-12" style="edgeStyle=none;curved=1;rounded=0;orthogonalLoop=1;jettySize=auto;html=1;exitX=1;exitY=0.5;exitDx=0;exitDy=0;fontSize=12;startSize=8;endSize=8;" edge="1" parent="1" source="VjE--omdAlmAHaHHL6hZ-11" target="VjE--omdAlmAHaHHL6hZ-11">
          <mxGeometry relative="1" as="geometry" />
        </mxCell>
        <mxCell id="VjE--omdAlmAHaHHL6hZ-13" value="" style="rounded=1;whiteSpace=wrap;html=1;fontSize=16;fillColor=#f5f5f5;fontColor=#333333;strokeColor=#666666;" vertex="1" parent="1">
          <mxGeometry x="-85" y="-639" width="351" height="53" as="geometry" />
        </mxCell>
        <mxCell id="r6yLNoG1JKIrol4z2VNO-13" value="DIO" style="rounded=1;whiteSpace=wrap;html=1;fontSize=16;fillColor=#1ba1e2;fontColor=#ffffff;strokeColor=#006EAF;" parent="1" vertex="1">
          <mxGeometry x="-73" y="-628.5" width="130" height="35" as="geometry" />
        </mxCell>
        <mxCell id="r6yLNoG1JKIrol4z2VNO-14" value="TMR" style="rounded=1;whiteSpace=wrap;html=1;fontSize=16;fillColor=#1ba1e2;fontColor=#ffffff;strokeColor=#006EAF;" parent="1" vertex="1">
          <mxGeometry x="124" y="-630" width="130" height="35" as="geometry" />
        </mxCell>
        <mxCell id="VjE--omdAlmAHaHHL6hZ-28" style="edgeStyle=orthogonalEdgeStyle;rounded=1;orthogonalLoop=1;jettySize=auto;html=1;fontSize=12;startSize=8;endSize=8;exitX=0.5;exitY=1;exitDx=0;exitDy=0;" edge="1" parent="1" source="VjE--omdAlmAHaHHL6hZ-14" target="VjE--omdAlmAHaHHL6hZ-13">
          <mxGeometry relative="1" as="geometry" />
        </mxCell>
        <mxCell id="VjE--omdAlmAHaHHL6hZ-14" value="DCM" style="rounded=1;whiteSpace=wrap;html=1;fontSize=16;fillColor=#ff9e42;fontColor=#000000;strokeColor=#C73500;" vertex="1" parent="1">
          <mxGeometry x="113" y="-771" width="60" height="60" as="geometry" />
        </mxCell>
        <mxCell id="VjE--omdAlmAHaHHL6hZ-6" style="edgeStyle=orthogonalEdgeStyle;rounded=1;orthogonalLoop=1;jettySize=auto;html=1;entryX=0.5;entryY=0;entryDx=0;entryDy=0;fontSize=12;startSize=8;endSize=8;" edge="1" parent="1" source="VjE--omdAlmAHaHHL6hZ-1" target="r6yLNoG1JKIrol4z2VNO-14">
          <mxGeometry relative="1" as="geometry">
            <mxPoint x="269.5" y="-639" as="targetPoint" />
          </mxGeometry>
        </mxCell>
        <mxCell id="VjE--omdAlmAHaHHL6hZ-31" value="STD_TYPES" style="rounded=1;whiteSpace=wrap;html=1;fontSize=16;fillColor=#bac8d3;strokeColor=#23445d;rotation=-90;" vertex="1" parent="1">
          <mxGeometry x="-229" y="-865" width="120" height="40" as="geometry" />
        </mxCell>
        <mxCell id="VjE--omdAlmAHaHHL6hZ-32" value="MCU_Config" style="rounded=1;whiteSpace=wrap;html=1;fontSize=16;fillColor=#bac8d3;strokeColor=#23445d;rotation=-90;" vertex="1" parent="1">
          <mxGeometry x="-229.5" y="-724.5" width="120" height="40" as="geometry" />
        </mxCell>
        <mxCell id="VjE--omdAlmAHaHHL6hZ-33" value="BIT_MATH" style="rounded=1;whiteSpace=wrap;html=1;fontSize=16;fillColor=#bac8d3;strokeColor=#23445d;rotation=-90;" vertex="1" parent="1">
          <mxGeometry x="-229.5" y="-586" width="120" height="40" as="geometry" />
        </mxCell>
      </root>
    </mxGraphModel>
  </diagram>
</mxfile>
